<?xml version="1.0" standalone="no"?>
<!DOCTYPE svg PUBLIC "-//W3C//DTD SVG 20010904//EN"
 "http://www.w3.org/TR/2001/REC-SVG-20010904/DTD/svg10.dtd">
<svg version="1.0" xmlns="http://www.w3.org/2000/svg"
 width="200.000000pt" height="200.000000pt" viewBox="0 0 200.000000 200.000000"
 preserveAspectRatio="xMidYMid meet">
<metadata>
Created by potrace 1.14, written by Peter Selinger 2001-2017
</metadata>
<g transform="translate(0.000000,200.000000) scale(0.100000,-0.100000)"
fill="#000000" stroke="none">
<path d="M0 1000 l0 -1000 1000 0 1000 0 0 1000 0 1000 -1000 0 -1000 0 0
-1000z m1065 550 c113 -17 185 -38 271 -80 96 -47 159 -106 174 -162 14 -51
-7 -129 -50 -180 -39 -47 -143 -98 -216 -105 l-55 -6 51 -17 c59 -20 103 -58
133 -115 31 -58 30 -171 -2 -243 -31 -68 -113 -143 -189 -173 -104 -41 -304
-29 -482 28 l-55 18 1 165 c0 184 14 303 51 430 52 180 129 256 208 204 30
-20 31 -33 5 -77 -53 -90 -82 -238 -95 -493 -8 -153 -7 -156 82 -174 155 -33
305 22 349 127 19 44 18 129 -2 163 -22 36 -55 55 -143 79 -92 25 -133 50
-146 85 -18 52 -1 60 127 66 103 5 122 9 174 35 89 46 129 134 88 193 -39 56
-175 94 -344 95 -207 2 -317 -36 -378 -128 -52 -77 -90 -117 -109 -113 -15 3
-19 15 -21 66 -3 70 24 144 70 193 96 102 295 148 503 119z"/>
</g>
</svg>
