<?xml version="1.0" standalone="no"?>
<!DOCTYPE svg PUBLIC "-//W3C//DTD SVG 20010904//EN"
 "http://www.w3.org/TR/2001/REC-SVG-20010904/DTD/svg10.dtd">
<svg version="1.0" xmlns="http://www.w3.org/2000/svg"
 width="512.000000pt" height="512.000000pt" viewBox="0 0 512.000000 512.000000"
 preserveAspectRatio="xMidYMid meet">
<metadata>
Created by potrace 1.11, written by Peter Selinger 2001-2013
</metadata>
<g transform="translate(0.000000,512.000000) scale(0.100000,-0.100000)"
fill="#000000" stroke="none">
<path d="M2285 5108 c-349 -35 -721 -160 -1036 -349 -677 -405 -1120 -1081
-1230 -1879 -18 -125 -18 -515 0 -640 98 -712 454 -1317 1023 -1742 852 -636
2045 -666 2933 -73 156 104 263 192 395 325 303 302 521 665 643 1070 144 475
144 1005 0 1480 -122 405 -340 768 -643 1070 -420 421 -968 682 -1554 739
-128 13 -402 12 -531 -1z m-170 -681 c33 -16 77 -45 98 -65 175 -169 311 -618
387 -1277 11 -99 23 -200 26 -225 l6 -45 52 125 c29 69 164 401 301 737 l250
613 308 0 c169 0 307 -3 307 -7 0 -3 -30 -63 -66 -132 -105 -199 -370 -705
-566 -1081 -99 -190 -200 -381 -223 -425 -23 -44 -85 -163 -138 -265 l-95
-185 -4 -475 -5 -475 -35 -102 c-46 -135 -87 -202 -178 -293 -57 -57 -97 -86
-166 -122 -111 -56 -182 -72 -290 -65 -176 11 -283 105 -320 282 -36 175 25
411 201 770 130 265 231 431 451 746 l56 80 -6 82 c-14 165 -55 458 -86 602
-67 324 -151 536 -250 635 -64 65 -104 80 -209 80 -142 0 -213 -68 -366 -350
-70 -130 -99 -168 -131 -176 -40 -10 -73 21 -114 109 -53 112 -64 163 -57 260
17 263 250 540 545 649 67 24 88 28 167 25 73 -2 101 -8 150 -30z"/>
</g>
</svg>
